<svg width="33" height="21" viewBox="0 0 33 21" fill="none" xmlns="http://www.w3.org/2000/svg">
<g clip-path="url(#clip0_2_1823)">
<path d="M30.6246 2.48126C30.6246 2.50479 30.6246 2.53422 30.6185 2.55187C30.5878 2.78135 30.5878 3.01084 30.6062 3.2462C30.6185 3.30505 30.6308 3.36389 30.6798 3.41096C30.7595 3.49922 30.8821 3.48157 30.9312 3.37566C30.9557 3.3227 30.9557 3.26974 30.9434 3.21678C30.8821 2.99318 30.8699 2.75782 30.8637 2.52833C30.8637 2.51656 30.8637 2.49891 30.8637 2.48126C30.9312 2.47537 30.9925 2.46949 31.0476 2.46949C31.0906 2.46361 31.1274 2.45772 31.158 2.44007C31.25 2.393 31.25 2.29297 31.1519 2.24589C31.1151 2.22824 31.0661 2.22235 31.0231 2.22235C30.8699 2.22824 30.7166 2.22824 30.5633 2.22824C30.5082 2.22824 30.453 2.23412 30.3978 2.24C30.3671 2.24589 30.3303 2.24589 30.3058 2.26354C30.2629 2.28119 30.2384 2.31061 30.2384 2.3518C30.2445 2.393 30.2629 2.41653 30.3058 2.43418C30.3303 2.45184 30.361 2.45772 30.3916 2.45772C30.4652 2.46361 30.5449 2.47537 30.6246 2.48126ZM32.3106 2.75193C32.3106 2.75782 32.3167 2.7637 32.3167 2.7637C32.3412 2.92257 32.3658 3.07556 32.3842 3.22855C32.3903 3.28151 32.3964 3.32858 32.4332 3.36977C32.5129 3.4698 32.6355 3.45803 32.6907 3.35212C32.7152 3.29916 32.7214 3.2462 32.7091 3.18736C32.6723 3.01083 32.6539 2.83431 32.6171 2.66367C32.5926 2.55775 32.562 2.45772 32.5313 2.36358C32.5129 2.30473 32.47 2.26354 32.3964 2.25766C32.3229 2.24589 32.2677 2.28119 32.237 2.33415C32.2002 2.38122 32.1696 2.4283 32.145 2.48126C32.1021 2.5754 32.0654 2.66955 32.0163 2.75782C32.0102 2.78135 32.004 2.79901 31.9918 2.81665C31.9857 2.80489 31.9796 2.79901 31.9796 2.79901C31.8998 2.6519 31.8263 2.50479 31.7466 2.36358C31.7343 2.3518 31.7282 2.34004 31.722 2.32827C31.6853 2.27531 31.6424 2.24589 31.5749 2.24589C31.5136 2.25177 31.4645 2.28708 31.4339 2.34004C31.4216 2.36358 31.4216 2.38122 31.4155 2.40476C31.391 2.59306 31.3603 2.78135 31.3358 2.96965C31.3235 3.07556 31.3174 3.18148 31.3174 3.28739C31.3113 3.31093 31.3174 3.34035 31.3296 3.36389C31.3419 3.41096 31.3787 3.44038 31.4277 3.44627C31.4891 3.45215 31.532 3.4345 31.5504 3.38742C31.5687 3.35212 31.5749 3.3227 31.581 3.29328C31.6056 3.18736 31.6239 3.08733 31.6424 2.9873C31.6546 2.92846 31.6607 2.88138 31.6791 2.81665C31.6914 2.84019 31.7036 2.85785 31.7159 2.8755C31.7711 2.94611 31.8263 3.01672 31.8937 3.07556C31.9611 3.12263 32.0163 3.11675 32.0715 3.06379C32.0838 3.05202 32.0899 3.04614 32.1021 3.03437C32.1573 2.95199 32.2248 2.86962 32.2799 2.78723C32.2922 2.77547 32.2983 2.7637 32.3106 2.75193Z" fill="#3A3B7B"/>
<path d="M18.1844 2.59686C18.1418 2.70869 18.1337 2.78925 18.1534 2.85622C18.1751 2.94727 18.2315 2.97708 18.308 2.95393C19.0282 2.78302 20.6072 3.26813 21.1919 3.40333C21.3297 3.43172 21.4419 3.2609 21.3478 3.10774C21.2105 2.95942 19.6321 2.3244 19.0299 2.28977C18.7938 2.27697 18.3718 2.21887 18.1844 2.59686Z" fill="#3A3B7B"/>
<path d="M24.3557 0.541231C24.4325 0.583745 24.4754 0.624301 24.4966 0.669614C24.5281 0.729053 24.5115 0.770177 24.4585 0.791161C23.9825 1.01413 23.349 1.97408 23.0934 2.30515C23.0314 2.38131 22.8884 2.33705 22.8668 2.21181C22.8713 2.07019 23.4327 1.02844 23.7461 0.744706C23.8693 0.633926 24.0727 0.416563 24.3557 0.541231Z" fill="#3A3B7B"/>
<path d="M20.5649 0.0687224C20.6571 0.00202726 20.753 -0.0213447 20.8019 0.0219987C21.5201 0.611499 21.9009 1.54502 22.1368 2.39964C22.1456 2.41956 22.1462 2.44813 22.1391 2.47793C22.1362 2.50341 22.1168 2.53032 22.086 2.55115C22.0531 2.57413 22.0247 2.58114 22.0114 2.56133C21.6967 2.15042 19.8989 0.551638 20.5649 0.0687224Z" fill="#3A3B7B"/>
<path d="M5.35642 10.2892C5.52855 10.1662 5.71568 10.0638 5.91371 9.98431C6.12089 9.92746 6.34171 9.93687 6.54282 10.0112C6.74388 10.0855 6.91432 10.2206 7.02827 10.3961C7.1302 10.5712 7.17006 10.7733 7.14193 10.9721C7.11379 11.1708 7.01915 11.3553 6.87222 11.498C6.75832 11.6136 6.629 11.7143 6.48772 11.7975C5.858 12.188 5.22266 12.557 4.58737 12.9475C4.45737 13.0452 4.31947 13.1329 4.17497 13.2096C3.95519 13.3148 3.70401 13.3429 3.46486 13.2892C3.22573 13.2355 3.01366 13.1033 2.86535 12.9154C2.75448 12.7824 2.66091 12.6369 2.58671 12.4821C1.98484 11.268 1.36068 10.0592 0.781105 8.82361C0.513606 8.28877 0.296266 7.67365 0.0844979 7.07995C-0.00712287 6.90745 -0.0250143 6.70747 0.0346332 6.5225C0.0942807 6.33752 0.226761 6.18218 0.403894 6.08951C0.581028 5.99683 0.788835 5.97417 0.983126 6.02629C1.17742 6.0784 1.34286 6.20122 1.44427 6.36858C1.75598 6.76615 2.0319 7.18845 2.26906 7.63089C2.87092 8.70061 3.44493 9.77033 4.02451 10.808C4.05825 10.8653 4.09547 10.9207 4.13596 10.9738C4.57219 10.7978 4.98249 10.5676 5.35642 10.2892Z" fill="#3A3B7B"/>
<path d="M11.5793 9.91602C10.2028 11.4618 7.89567 11.0713 6.73652 9.08161C5.91172 7.66955 5.76684 5.33751 7.56132 3.86663C7.94451 3.55868 8.40271 3.34891 8.8932 3.25687C9.4946 3.17412 10.1079 3.27595 10.6453 3.54781C11.1828 3.81967 11.617 4.24764 11.8859 4.77056C12.8667 6.48215 12.7273 8.6644 11.5793 9.91602ZM11.022 6.31098C10.8758 5.89038 10.5824 5.5313 10.1917 5.29471C9.97056 5.14345 9.70188 5.06991 9.4309 5.08647C9.15988 5.10303 8.90311 5.20869 8.70373 5.38564C7.90684 6.06494 7.73961 7.67491 8.31919 8.63233C8.39308 8.78845 8.50155 8.92718 8.63713 9.03885C8.77272 9.15051 8.93209 9.2324 9.10407 9.27874C9.27606 9.32512 9.45651 9.33485 9.63285 9.30728C9.80918 9.27966 9.97706 9.21543 10.1248 9.11904C10.5568 8.79758 10.8737 8.35495 11.0315 7.85269C11.1893 7.35038 11.1802 6.81339 11.0053 6.31635L11.022 6.31098Z" fill="#3A3B7B"/>
<path d="M17.1968 6.98491C17.0559 7.014 16.9103 7.01574 16.7686 6.99C16.627 6.96426 16.4921 6.91164 16.372 6.83517C16.2669 6.77745 16.1764 6.69813 16.1071 6.60284C16.0378 6.50756 15.9913 6.39873 15.9711 6.28413C15.9508 6.16958 15.9573 6.05213 15.99 5.94024C16.0227 5.82834 16.0809 5.7248 16.1603 5.63703C16.2986 5.46068 16.495 5.33443 16.7175 5.27869C17.2986 5.11683 17.8968 5.01815 18.5009 4.98452C18.6336 4.9697 18.768 4.98048 18.8963 5.01622C19.0247 5.05201 19.1442 5.11197 19.2481 5.19271C19.3519 5.27341 19.4379 5.37324 19.501 5.48628C19.564 5.59932 19.6029 5.72333 19.6154 5.85101C19.7896 6.47815 19.8086 7.13571 19.6711 7.7712C19.1696 9.82508 17.442 10.5311 15.5026 9.87321C14.9583 9.69731 14.4809 9.36957 14.1317 8.93185C13.666 8.40472 13.3357 7.78001 13.1676 7.10795C13.0314 6.50948 13.0463 5.88849 13.2112 5.29672C13.376 4.70494 13.6859 4.15958 14.115 3.70617C14.5223 3.21337 15.0508 2.82554 15.6531 2.5776C16.0337 2.37626 16.479 2.31902 16.9015 2.41714C16.9973 2.44259 17.0842 2.49218 17.1534 2.56077C17.2225 2.62937 17.2712 2.71446 17.2945 2.80723C17.3179 2.89999 17.3149 2.99705 17.2859 3.08835C17.257 3.17964 17.2031 3.26184 17.1299 3.32641C16.9908 3.44732 16.8396 3.55481 16.6785 3.64734C16.1831 3.95016 15.7519 4.34037 15.4079 4.7973C15.1824 5.09298 15.0271 5.43251 14.953 5.79196C14.8788 6.15141 14.8876 6.5221 14.9788 6.87797C15.1052 7.36317 15.3857 7.79868 15.7813 8.12418C17.0073 9.19395 18.6011 8.16162 18.3225 6.70143C17.9157 6.79773 17.559 6.89935 17.1968 6.98491Z" fill="#3A3B7B"/>
<path d="M24.6868 10.0015C22.8756 11.0713 20.8136 10.0015 20.3622 7.75511C20.0334 6.15051 20.6576 3.90404 22.8422 3.04825C23.307 2.87009 23.8111 2.80753 24.3078 2.86639C24.9046 2.97125 25.4521 3.25322 25.873 3.67257C26.2939 4.09192 26.5671 4.62747 26.654 5.20378C27.0218 7.11324 26.1859 9.15111 24.6868 10.0015ZM25.3165 6.40187C25.316 5.95755 25.1522 5.52759 24.854 5.18773C24.6946 4.97752 24.4641 4.8269 24.2019 4.76153C23.9397 4.6962 23.662 4.72014 23.4161 4.82938C22.4353 5.23585 21.7443 6.71209 21.9951 7.79792C22.0143 7.9683 22.0719 8.13264 22.1641 8.2794C22.2563 8.42616 22.3808 8.55182 22.529 8.64761C22.677 8.74336 22.8451 8.80694 23.0215 8.83387C23.1978 8.86076 23.3782 8.85039 23.5499 8.80345C24.0683 8.62962 24.5172 8.30477 24.8339 7.87421C25.1507 7.44365 25.3194 6.92891 25.3165 6.40187Z" fill="#3A3B7B"/>
<path d="M28.4855 10.4509C28.4582 10.6466 28.351 10.824 28.1874 10.9438C28.0238 11.0637 27.8173 11.1163 27.6134 11.09C27.4094 11.0638 27.2247 10.9609 27.0998 10.8039C26.9749 10.6469 26.9201 10.4487 26.9474 10.253C26.9748 10.0572 27.082 9.8799 27.2456 9.76002C27.4091 9.64014 27.6156 9.58756 27.8196 9.61381C28.0235 9.64005 28.2083 9.74295 28.3332 9.89994C28.4581 10.0569 28.5129 10.2551 28.4855 10.4509ZM28.0007 3.23547C28.1067 3.08011 28.2622 2.96179 28.444 2.89818C28.6257 2.83456 28.8241 2.82904 29.0094 2.88246C29.1978 2.9277 29.3642 3.03368 29.4809 3.18266C29.5976 3.33164 29.6573 3.51457 29.6503 3.70081C29.6257 3.99955 29.5791 4.29625 29.511 4.58868C29.327 5.57821 29.1487 6.56769 28.9537 7.54653C28.8645 7.93699 28.7475 8.3114 28.6193 8.70718C28.5747 8.83091 28.5002 8.94271 28.402 9.03346C28.3409 9.10172 28.2629 9.15407 28.1751 9.18568C28.0873 9.21734 27.9927 9.2272 27.8999 9.2144C27.8071 9.2016 27.7192 9.16655 27.6443 9.11251C27.5694 9.05842 27.5099 8.98708 27.4713 8.90509C27.405 8.75801 27.369 8.59996 27.3654 8.43976C27.3654 7.77651 27.3654 7.10794 27.41 6.43933C27.4857 5.48517 27.6347 4.53766 27.8558 3.60453C27.8818 3.47952 27.9309 3.35996 28.0007 3.25152V3.23547Z" fill="#3A3B7B"/>
<path fill-rule="evenodd" clip-rule="evenodd" d="M3.00191 14.749C2.93611 14.89 2.91807 15.0472 2.95022 15.1984C2.97161 15.3978 3.0186 15.5939 3.0901 15.7823C3.17938 16.013 3.27928 16.2411 3.40245 16.5222C3.43078 16.5869 3.46038 16.6544 3.49136 16.7255C3.65747 17.1064 3.86589 17.5931 4.1439 18.2976C4.22259 18.4977 4.29247 18.6995 4.36283 18.9026C4.39126 18.9847 4.41979 19.067 4.44899 19.1496C4.55366 19.443 4.73376 19.7066 4.97249 19.9155C5.07386 20.0304 5.20832 20.114 5.35909 20.1559C5.5128 20.1985 5.67629 20.1958 5.82836 20.1481C5.98044 20.1004 6.11402 20.0098 6.21174 19.8882C6.30755 19.769 6.36452 19.6253 6.3756 19.4752C6.43776 19.1827 6.41654 18.8795 6.31409 18.5976C6.1515 18.1295 5.96628 17.6608 5.7527 17.2023L5.75172 17.2002C5.40036 16.4829 5.0432 15.7705 4.66914 15.0579L4.66634 15.0529C4.55684 14.8672 4.41453 14.7012 4.24582 14.5624C4.13628 14.4385 3.9852 14.3549 3.81835 14.3261C3.64795 14.2967 3.4722 14.3263 3.32249 14.4097C3.18086 14.4874 3.06859 14.6062 3.00191 14.749Z" fill="#3A3B7B"/>
<path fill-rule="evenodd" clip-rule="evenodd" d="M8.36843 12.9826C7.81751 12.8457 7.24214 12.8257 6.68243 12.9242C6.2489 12.9651 5.82253 13.0611 5.52645 13.2512C5.37587 13.348 5.25412 13.4722 5.1864 13.6301C5.11831 13.7889 5.10962 13.9705 5.16542 14.1728C5.2673 14.5434 5.39961 14.9037 5.53146 15.2629L5.55281 15.3211L5.55333 15.3224C5.9503 16.3658 6.35107 17.4057 6.75547 18.442C6.80263 18.6053 6.86932 18.7629 6.9542 18.9115L6.95578 18.9142C7.0679 19.0988 7.21171 19.264 7.38113 19.4026C7.46586 19.4789 7.57064 19.5316 7.68426 19.5552C7.799 19.579 7.91831 19.5721 8.02922 19.5352C8.14017 19.4984 8.23841 19.433 8.31328 19.3462C8.38694 19.2608 8.43517 19.158 8.45288 19.0485C8.52598 18.7511 8.50256 18.4394 8.38572 18.1551C8.34927 18.0595 8.32067 17.9617 8.29052 17.8588C8.28047 17.8245 8.27028 17.7896 8.25954 17.754C9.18524 17.4067 10.1702 16.9398 10.5166 15.8534C10.6522 15.478 10.6635 15.0715 10.5489 14.6896C10.4342 14.3073 10.1989 13.9684 9.87539 13.7197C9.43509 13.3715 8.92076 13.1199 8.36843 12.9826ZM6.84133 14.3151C6.85956 14.3101 6.87792 14.3054 6.89634 14.301C7.499 14.2101 8.11559 14.3313 8.63258 14.6421C8.86042 14.7942 8.95375 14.9632 8.96978 15.1258C8.98633 15.2932 8.92291 15.4746 8.7955 15.649C8.55477 15.9784 8.11545 16.242 7.71861 16.2911C7.42932 15.6517 7.13553 14.9864 6.84133 14.3151Z" fill="#3A3B7B"/>
<path d="M12.0414 11.8121C12.6974 11.5213 13.5101 11.4711 14.1461 11.6756C14.3062 11.7203 14.4452 11.8172 14.5392 11.9495C14.6326 12.0811 14.6756 12.2396 14.6613 12.398C14.6603 12.5009 14.634 12.6021 14.5845 12.6934C14.5341 12.7863 14.4612 12.8663 14.3718 12.9264C14.2825 12.9866 14.1793 13.0253 14.0711 13.0391C13.9629 13.0529 13.8528 13.0416 13.7501 13.0059L13.7423 13.0032L13.735 12.9995C13.6825 12.9731 13.6267 12.9532 13.5689 12.9403L13.5653 12.9395C13.1179 12.8255 12.696 13.0144 12.5418 13.2466C12.4683 13.3573 12.4592 13.4691 12.5204 13.5707C12.586 13.6796 12.7468 13.8018 13.0722 13.8889C13.1617 13.9124 13.2535 13.9352 13.3465 13.9583C13.6038 14.0223 13.8713 14.0887 14.1299 14.1808L14.1308 14.1811C15.3238 14.6168 15.7681 15.5191 15.616 16.3677C15.4655 17.2069 14.7353 17.9707 13.6371 18.1509C13.2375 18.2359 12.8217 18.2193 12.4307 18.1028C12.0388 17.986 11.6855 17.7728 11.406 17.4843L11.3987 17.4768C11.3105 17.3681 11.2511 17.2404 11.2248 17.1049C11.2006 16.9827 11.2133 16.8563 11.2615 16.7408C11.3093 16.6259 11.3903 16.5265 11.4947 16.454C11.6051 16.3719 11.7381 16.3226 11.8773 16.3124C12.0161 16.3021 12.1549 16.3311 12.2768 16.3956C12.3985 16.452 12.5117 16.524 12.6133 16.6096L12.6152 16.6112C12.7949 16.7689 13.0124 16.81 13.2209 16.772C13.4325 16.7333 13.6315 16.6132 13.7594 16.4538C13.8866 16.2954 13.9376 16.1072 13.877 15.9245C13.8161 15.7405 13.6328 15.5343 13.2302 15.3619C13.1249 15.319 13.0158 15.2844 12.9023 15.2508C12.8717 15.2417 12.8406 15.2327 12.8091 15.2235C12.7251 15.199 12.6387 15.1738 12.5541 15.1461C12.4957 15.127 12.4379 15.1089 12.3806 15.091C12.224 15.042 12.0713 14.9943 11.9243 14.9303C11.6045 14.8258 11.3282 14.6251 11.1366 14.358C10.9441 14.0898 10.8473 13.7691 10.8604 13.4437C10.8615 12.6508 11.3818 12.1046 12.0414 11.8121Z" fill="#3A3B7B"/>
<path d="M20.3592 11.7277C20.2319 11.668 20.0913 11.6397 19.9498 11.6453C19.8084 11.6509 19.6706 11.6901 19.5489 11.7596C19.428 11.8286 19.3268 11.9253 19.2543 12.0409C19.1878 12.1383 19.1417 12.2472 19.1188 12.3616C19.0958 12.4759 19.0964 12.5933 19.1204 12.7073C19.1441 12.8539 19.1703 12.9964 19.1963 13.1369C19.2392 13.3694 19.281 13.5968 19.3086 13.8285L19.3096 13.8344C19.3724 14.1979 19.4052 14.5655 19.4082 14.9339L19.4085 14.9391C19.4299 15.337 19.2887 15.7271 19.015 16.0267L19.0107 16.032C18.9216 16.1415 18.8026 16.2251 18.6668 16.2734C18.5311 16.3217 18.3841 16.3328 18.2422 16.3054C18.1002 16.2781 17.969 16.2134 17.8632 16.1186C17.7574 16.0238 17.6811 15.9022 17.643 15.7682C17.5617 15.4857 17.5146 15.1952 17.5026 14.9024L17.6415 12.78C17.6436 12.7522 17.6459 12.7238 17.6483 12.6951C17.6536 12.6306 17.659 12.565 17.6613 12.5037C17.6645 12.4136 17.6617 12.321 17.6399 12.2332C17.6175 12.1436 17.5749 12.0583 17.4994 11.9857C17.4246 11.9138 17.3236 11.8608 17.1966 11.8247C16.9669 11.7608 16.7727 11.7629 16.6108 11.8288C16.4489 11.8947 16.3379 12.0171 16.2594 12.1585C16.1815 12.2987 16.1315 12.4647 16.0936 12.631C16.0655 12.7543 16.0429 12.8838 16.0215 13.0071C16.0141 13.0496 16.0068 13.0913 15.9995 13.1318L15.9993 13.133C15.8845 13.809 15.8503 14.4954 15.8974 15.1789C15.9062 15.5483 15.9865 15.9129 16.1342 16.2541C16.3008 16.6943 16.6026 17.0757 16.9997 17.348C17.3976 17.6208 17.8725 17.7712 18.3615 17.7791C18.8504 17.7871 19.3304 17.6522 19.7377 17.3925C20.1444 17.1332 20.4596 16.7615 20.6416 16.3266C20.8962 15.7726 21.0157 15.1702 20.991 14.5651C20.9761 14.1234 20.951 13.6783 20.9261 13.2355C20.9139 13.0182 20.9017 12.8015 20.8907 12.586C20.8852 12.37 20.811 12.1608 20.678 11.9864C20.5957 11.8761 20.4861 11.7872 20.3592 11.7277Z" fill="#3A3B7B"/>
<path d="M24.8618 15.0557C24.8489 15.0714 24.8353 15.0877 24.8211 15.1046C24.7176 14.5317 24.6217 13.959 24.5257 13.3854C24.4912 13.1796 24.4566 12.9729 24.4218 12.7668L24.4178 12.7438L24.4051 12.724C24.3811 12.6866 24.3788 12.6499 24.3788 12.5718V12.5627L24.3773 12.5538C24.3513 12.3923 24.2752 12.2421 24.159 12.1227C24.0431 12.0037 23.8926 11.9208 23.727 11.8848C23.5617 11.8457 23.388 11.8543 23.2277 11.9097C23.0679 11.9649 22.9285 12.064 22.8271 12.1948C22.7428 12.2951 22.6737 12.4064 22.6219 12.5253C22.5044 12.7815 22.3858 13.0383 22.2669 13.2958L22.2648 13.3003C21.968 13.9432 21.6692 14.5904 21.3791 15.2426L21.3782 15.2448C21.2001 15.6677 21.053 16.1134 20.9065 16.5576C20.8772 16.6463 20.848 16.7349 20.8185 16.8233C20.7656 16.9635 20.7425 17.1125 20.7504 17.2613C20.7408 17.3946 20.774 17.5276 20.8457 17.6422C20.9188 17.7592 21.0283 17.8512 21.1587 17.9054C21.297 17.9636 21.4515 17.9759 21.598 17.9405C21.7441 17.9051 21.8738 17.8242 21.9668 17.7104C22.0855 17.5703 22.1876 17.4174 22.2709 17.2555C22.5167 16.7729 22.7516 16.2845 22.9854 15.7982C23.0759 15.6101 23.1638 15.4417 23.2638 15.2582C23.2707 15.2808 23.2777 15.3029 23.2849 15.325C23.3897 15.7679 23.5667 16.1922 23.8092 16.5823C23.8551 16.6649 23.919 16.7371 23.9966 16.7939C24.0751 16.8515 24.1657 16.8918 24.2622 16.9124C24.3586 16.9329 24.4585 16.9329 24.555 16.9126C24.6513 16.8923 24.7422 16.8519 24.8207 16.7947L24.9762 16.683L26.1831 15.7073L26.1117 16.1438C26.0138 16.7438 25.9166 17.3389 25.8133 17.934C25.7457 18.1978 25.7458 18.4734 25.8136 18.7371C25.8429 18.8855 25.9177 19.0221 26.0284 19.1296C26.14 19.2379 26.2829 19.3115 26.4386 19.3408C26.5943 19.3701 26.7557 19.3539 26.9016 19.2941C27.0455 19.2353 27.1678 19.1368 27.2534 19.0113C27.4524 18.7744 27.5762 18.4875 27.6102 18.1848C27.6615 17.7575 27.7193 17.3242 27.7772 16.8912C27.8439 16.392 27.9106 15.8929 27.9669 15.4034L27.9671 15.4019C28.0213 14.8661 28.0475 14.3281 28.0457 13.7898C28.0576 13.6197 28.0135 13.4502 27.9194 13.3054C27.8251 13.16 27.6853 13.047 27.5202 12.9824C27.3484 12.9074 27.1561 12.8874 26.9715 12.9253C26.7881 12.9629 26.6222 13.0557 26.4977 13.19C26.2751 13.3876 26.0663 13.5991 25.8725 13.823L25.8712 13.8245C25.6598 14.0775 25.4497 14.3353 25.241 14.5916C25.1142 14.7473 24.9876 14.9027 24.8618 15.0557Z" fill="#3A3B7B"/>
</g>
<defs>
<clipPath id="clip0_2_1823">
<rect width="32.7153" height="20.186" fill="white"/>
</clipPath>
</defs>
</svg>
