<svg width="28" height="20" viewBox="0 0 28 20" fill="none" xmlns="http://www.w3.org/2000/svg">
<g clip-path="url(#clip0_2_1816)">
<path fill-rule="evenodd" clip-rule="evenodd" d="M6.9508 2.86406L0 9.74497C1.39029 11.1213 2.97847 12.2812 4.71005 13.1887C5.18867 14.4455 5.93889 15.6242 6.96069 16.6357C10.805 20.4413 17.0378 20.4413 20.8821 16.6357C21.9039 15.6242 22.6541 14.4455 23.1328 13.1886C24.8643 12.2812 26.4525 11.1213 27.8428 9.74497L20.8976 2.86966C20.8925 2.86451 20.8873 2.85937 20.8821 2.85423C17.0378 -0.951411 10.805 -0.951411 6.96069 2.85423C6.9574 2.85751 6.9541 2.86078 6.9508 2.86406ZM20.217 14.4301C18.1914 15.1069 16.0651 15.4534 13.9214 15.4534C11.7777 15.4534 9.65142 15.1069 7.62586 14.4301C7.84533 14.7184 8.08763 14.995 8.35283 15.2576C11.4283 18.3021 16.4145 18.3021 19.4899 15.2576C19.7551 14.995 19.9975 14.7184 20.217 14.4301ZM8.4956 4.09456C9.01786 4.43613 9.57318 4.72841 10.1543 4.9667C11.3486 5.45643 12.6286 5.70849 13.9214 5.70849C15.2141 5.70849 16.4942 5.45643 17.6885 4.9667C18.2696 4.72841 18.8249 4.43612 19.3473 4.09454C16.3102 1.2338 11.5326 1.23381 8.4956 4.09456Z" fill="#3B4158"/>
</g>
<defs>
<clipPath id="clip0_2_1816">
<rect width="27.8428" height="19.4899" fill="white"/>
</clipPath>
</defs>
</svg>
