<svg width="29" height="19" viewBox="0 0 29 19" fill="none" xmlns="http://www.w3.org/2000/svg">
<g clip-path="url(#clip0_2_1839)">
<path d="M26.7551 0.587307C26.7551 0.911671 27.0213 1.17462 27.3497 1.17462H27.9442C28.2726 1.17462 28.5388 0.911671 28.5388 0.587307C28.5388 0.262947 28.2726 0 27.9442 0H27.3497C27.0213 0 26.7551 0.262947 26.7551 0.587307Z" fill="#212326"/>
<path d="M9.51295 18.7939H12.4012L11.5604 17.9633C11.3374 17.743 11.0349 17.6193 10.7196 17.6193H9.51295C4.91582 17.6193 1.18912 13.938 1.18912 9.39694C1.18912 4.85587 4.91582 1.17462 9.51295 1.17462H19.0259C23.623 1.17462 27.3497 4.85587 27.3497 9.39694C27.3497 13.938 23.623 17.6193 19.0259 17.6193H15.4673C14.9942 17.6193 14.5405 17.4336 14.206 17.1032L13.221 16.1301C12.6634 15.5794 11.9073 15.27 11.1188 15.27H9.51295C6.22927 15.27 3.56736 12.6406 3.56736 9.39694C3.56736 6.1533 6.22927 3.52385 9.51295 3.52385H19.0259C22.3096 3.52385 24.9715 6.1533 24.9715 9.39694C24.9715 12.6406 22.3096 15.27 19.0259 15.27H16.7409C16.2679 15.27 15.8142 15.0844 15.4797 14.754L14.4945 13.7809C13.937 13.2302 13.1809 12.9208 12.3925 12.9208H9.51295C7.54277 12.9208 5.94559 11.3431 5.94559 9.39694C5.94559 7.45078 7.54277 5.87309 9.51295 5.87309H19.0259C20.9961 5.87309 22.5933 7.45078 22.5933 9.39694C22.5933 11.3194 21.0348 12.8823 19.0978 12.9201L19.0974 12.9208H18.2273C17.7543 12.9208 17.3006 12.7352 16.9661 12.4048L15.9809 11.4317C15.5235 10.9798 14.9323 10.6904 14.2993 10.6011L14.2694 10.5716H9.51295C8.85622 10.5716 8.32383 10.0457 8.32383 9.39694C8.32383 8.74822 8.85622 8.22232 9.51295 8.22232H19.0259C19.6826 8.22232 20.215 8.74822 20.215 9.39694C20.215 10.0457 19.6826 10.5716 19.0259 10.5716H16.6477L17.4885 11.4022C17.7115 11.6224 18.014 11.7462 18.3293 11.7462H19.0259C20.3394 11.7462 21.4041 10.6944 21.4041 9.39694C21.4041 8.0995 20.3394 7.0477 19.0259 7.0477H9.51295C8.1995 7.0477 7.13471 8.0995 7.13471 9.39694C7.13471 10.6944 8.1995 11.7462 9.51295 11.7462H13.8789C14.3519 11.7462 14.8056 11.9318 15.1401 12.2622L16.1253 13.2353C16.6828 13.786 17.4389 14.0954 18.2273 14.0954H19.3232V14.0864C21.8116 13.9348 23.7824 11.8932 23.7824 9.39694C23.7824 6.80207 21.6528 4.69847 19.0259 4.69847H9.51295C6.88604 4.69847 4.75647 6.80207 4.75647 9.39694C4.75647 11.9919 6.88604 14.0954 9.51295 14.0954H12.3925C12.8656 14.0954 13.3192 14.281 13.6537 14.6114L14.6389 15.5845C15.1964 16.1352 15.9525 16.4446 16.7409 16.4446H19.0259C22.9663 16.4446 26.1606 13.2893 26.1606 9.39694C26.1606 5.50459 22.9663 2.34923 19.0259 2.34923H9.51295C5.57254 2.34923 2.37824 5.50459 2.37824 9.39694C2.37824 13.2893 5.57254 16.4446 9.51295 16.4446H11.1188C11.5919 16.4446 12.0456 16.6303 12.3801 16.9607L13.3652 17.9338C13.9227 18.4845 14.6789 18.7939 15.4673 18.7939H19.0259C24.2798 18.7939 28.5388 14.5867 28.5388 9.39694C28.5388 4.20715 24.2798 -4.53705e-07 19.0259 0L9.51295 1.94171e-06C4.25909 2.39542e-06 -4.59307e-07 4.20715 0 9.39694C4.59307e-07 14.5867 4.2591 18.7939 9.51295 18.7939Z" fill="#212326"/>
</g>
<defs>
<clipPath id="clip0_2_1839">
<rect width="28.5388" height="18.7939" fill="white"/>
</clipPath>
</defs>
</svg>
