<svg width="32" height="16" viewBox="0 0 32 16" fill="none" xmlns="http://www.w3.org/2000/svg">
<path d="M15.8655 2.66115C15.9085 2.69928 15.9386 2.74941 15.9516 2.8048C15.9647 2.86019 15.9601 2.91817 15.9385 2.97092L12.3493 14.7582C12.3041 14.8869 12.2117 14.9945 12.09 15.06C11.9911 15.1249 11.8766 15.1632 11.7578 15.1712H0.350298C0.252876 15.1666 0.16058 15.1271 0.0910312 15.06C0.0496581 15.0225 0.0206208 14.9737 0.00763094 14.92C-0.00535898 14.8662 -0.0017007 14.8099 0.0181165 14.7582L3.61539 2.97092C3.65683 2.8406 3.74639 2.73013 3.86654 2.66115C3.96713 2.60091 4.08111 2.56548 4.19873 2.55788H15.6063C15.7029 2.5588 15.7956 2.59572 15.8655 2.66115ZM9.91058 12.3833L12.0576 5.34583H6.04599L3.90705 12.3833H9.91058ZM26.7546 2.78028C26.7935 2.82463 26.8421 2.85979 26.8968 2.88317C26.9516 2.90655 27.0109 2.91754 27.0706 2.91531H28.5532C28.6097 2.91585 28.6653 2.90228 28.715 2.87588C28.7646 2.84947 28.8065 2.8111 28.8368 2.7644C28.8631 2.72792 28.8817 2.68662 28.8914 2.64295C28.9012 2.59929 28.9019 2.55416 28.8935 2.51023L28.6018 0.413304C28.5741 0.316254 28.5242 0.226639 28.456 0.151186C28.417 0.106843 28.3684 0.0716779 28.3137 0.0483004C28.259 0.024923 28.1996 0.013939 28.14 0.0161577H26.6574C26.6009 0.01562 26.5452 0.0291934 26.4956 0.0555988C26.446 0.0820041 26.4041 0.12037 26.3738 0.167078C26.3171 0.278275 26.2928 0.349759 26.3171 0.413304L26.6168 2.51023C26.6322 2.61233 26.6805 2.70694 26.7546 2.78028ZM31.4618 0.397418C31.434 0.300363 31.3841 0.210747 31.316 0.1353C31.2787 0.0911192 31.2315 0.0559642 31.1781 0.0325449C31.1247 0.00913089 31.0665 -0.00191575 31.0081 0.000271651H29.5173C29.4618 -0.00127884 29.4069 0.0119291 29.3584 0.0384963C29.3099 0.0650635 29.2696 0.104009 29.2419 0.151186C29.188 0.221653 29.1646 0.310167 29.1771 0.397418L29.4768 2.49434C29.4956 2.59537 29.5434 2.68904 29.6146 2.7644C29.6542 2.80787 29.7029 2.84245 29.7575 2.86575C29.8121 2.88906 29.871 2.90054 29.9305 2.89942H31.4213C31.4767 2.90014 31.5313 2.88658 31.5796 2.86009C31.628 2.83361 31.6684 2.79514 31.6968 2.74852C31.725 2.71298 31.7446 2.6717 31.7545 2.62772C31.7643 2.58374 31.7639 2.53817 31.7535 2.49434L31.4618 0.397418ZM25.4501 3.57457L25.3043 2.542H18.1179C18.0051 2.54809 17.8959 2.58376 17.8019 2.64525C17.7422 2.67716 17.6903 2.72137 17.6497 2.77485C17.6092 2.82834 17.581 2.8898 17.567 2.95503L16.9674 4.92485C16.9435 4.97408 16.9353 5.02931 16.944 5.08319C16.9527 5.13707 16.9778 5.18708 17.016 5.2267C17.0843 5.28966 17.1735 5.32636 17.2672 5.32996H26.0011L23.8541 12.3674H15.1445C15.0322 12.3699 14.9228 12.4029 14.8285 12.4627C14.7139 12.534 14.6302 12.6443 14.5935 12.7724L13.9859 14.7423C13.9661 14.7928 13.9609 14.8478 13.9708 14.901C13.9809 14.9543 14.0057 15.0038 14.0426 15.0441C14.1088 15.1113 14.1986 15.1511 14.2938 15.1553H25.7337C25.852 15.1453 25.9661 15.1072 26.0659 15.0441C26.1855 14.9782 26.2753 14.8704 26.3171 14.7423L29.6064 3.97172H25.9039C25.8451 3.97285 25.7868 3.96216 25.7324 3.9403C25.6781 3.91845 25.6289 3.88587 25.5879 3.84463C25.5209 3.7726 25.4735 3.68519 25.4501 3.59046V3.57457Z" fill="white"/>
</svg>
